<svg width="496" height="272" viewBox="0 0 496 272" xmlns="http://www.w3.org/2000/svg" lang="en" xml:lang="en"><rect x="2" y="2" stroke-width="4" rx="6" width="492" height="268" stroke="rgba(56,139,253,0.4)" fill="#0d1117"/><g font-weight="600" font-size="110pt" font-family="Verdana,Geneva,DejaVu Sans,sans-serif" text-rendering="geometricPrecision"><g transform="translate(0, 21)" fill="#c9d1d9"><g transform="translate(15, 0)"><g transform="scale(0.095)"><text x="0" y="132" textLength="3652" lengthAdjust="spacingAndGlyphs">Language Distribution in Public Repositories</text></g></g><g transform="translate(263, 21)"><circle cx="102" cy="102" r="102" fill="#ffffff"/></g><g transform="translate(264, 22)"><path fill-rule="evenodd" fill="#3178c6" d="M 0.0,101.00000000000001 A 101 101 0 0 1 201.88447335498785 96.17060708921453 L 101,101 Z"/><path fill-rule="evenodd" fill="#f1e05a" d="M 201.88447335498785,96.17060708921453 A 101 101 0 0 1 140.39588782513917 193.99980657221312 L 101,101 Z"/><path fill-rule="evenodd" fill="#3572A5" d="M 140.39588782513917,193.99980657221312 A 101 101 0 0 1 66.19051211060903 195.81191672399808 L 101,101 Z"/><path fill-rule="evenodd" fill="#DA5B0B" d="M 66.19051211060903,195.81191672399808 A 101 101 0 0 1 23.117959782041197 165.30698104784773 L 101,101 Z"/><path fill-rule="evenodd" fill="#ec915c" d="M 23.117959782041197,165.30698104784773 A 101 101 0 0 1 3.2317765312147912 126.34510760990528 L 101,101 Z"/><path fill-rule="evenodd" fill="#844FBA" d="M 3.2317765312147912,126.34510760990528 A 101 101 0 0 1 0.5954332946588607 111.95093533506169 L 101,101 Z"/><path fill-rule="evenodd" fill="#663399" d="M 0.5954332946588607,111.95093533506169 A 101 101 0 0 1 0.10026548820445669 105.49928610439183 L 101,101 Z"/><path fill-rule="evenodd" fill="#959da5" d="M 0.10026548820445669,105.49928610439183 A 101 101 0 0 1 0.0 101.00000000000004 L 101,101 Z"/></g><g transform="translate(15, 21)"><rect x="0.5" y="0.5" rx="2" width="15" height="15" fill="#3178c6" stroke-width="1" stroke="#ffffff"/><text transform="scale(0.095)" x="263" y="132" textLength="1568" lengthAdjust="spacingAndGlyphs">TypeScript 49.24%</text></g><g transform="translate(15, 42)"><rect x="0.5" y="0.5" rx="2" width="15" height="15" fill="#f1e05a" stroke-width="1" stroke="#ffffff"/><text transform="scale(0.095)" x="263" y="132" textLength="1516" lengthAdjust="spacingAndGlyphs">JavaScript 19.38%</text></g><g transform="translate(15, 63)"><rect x="0.5" y="0.5" rx="2" width="15" height="15" fill="#3572A5" stroke-width="1" stroke="#ffffff"/><text transform="scale(0.095)" x="263" y="132" textLength="1254" lengthAdjust="spacingAndGlyphs">Python 11.98%</text></g><g transform="translate(15, 84)"><rect x="0.5" y="0.5" rx="2" width="15" height="15" fill="#DA5B0B" stroke-width="1" stroke="#ffffff"/><text transform="scale(0.095)" x="263" y="132" textLength="2020" lengthAdjust="spacingAndGlyphs">Jupyter Notebook 8.41%</text></g><g transform="translate(15, 105)"><rect x="0.5" y="0.5" rx="2" width="15" height="15" fill="#ec915c" stroke-width="1" stroke="#ffffff"/><text transform="scale(0.095)" x="263" y="132" textLength="842" lengthAdjust="spacingAndGlyphs">Zig 6.95%</text></g><g transform="translate(15, 126)"><rect x="0.5" y="0.5" rx="2" width="15" height="15" fill="#844FBA" stroke-width="1" stroke="#ffffff"/><text transform="scale(0.095)" x="263" y="132" textLength="909" lengthAdjust="spacingAndGlyphs">HCL 2.31%</text></g><g transform="translate(15, 147)"><rect x="0.5" y="0.5" rx="2" width="15" height="15" fill="#663399" stroke-width="1" stroke="#ffffff"/><text transform="scale(0.095)" x="263" y="132" textLength="903" lengthAdjust="spacingAndGlyphs">CSS 1.02%</text></g><g transform="translate(15, 168)"><rect x="0.5" y="0.5" rx="2" width="15" height="15" fill="#959da5" stroke-width="1" stroke="#ffffff"/><text transform="scale(0.095)" x="263" y="132" textLength="1047" lengthAdjust="spacingAndGlyphs">Other 0.71%</text></g></g></g></svg>