<svg width="496" height="272" viewBox="0 0 496 272" xmlns="http://www.w3.org/2000/svg" lang="en" xml:lang="en"><rect x="2" y="2" stroke-width="4" rx="6" width="492" height="268" stroke="rgba(84,174,255,0.4)" fill="#ffffff"/><g font-weight="600" font-size="110pt" font-family="Verdana,Geneva,DejaVu Sans,sans-serif" text-rendering="geometricPrecision"><g transform="translate(0, 21)" fill="#24292f"><g transform="translate(15, 0)"><g transform="scale(0.095)"><text x="0" y="132" textLength="3652" lengthAdjust="spacingAndGlyphs">Language Distribution in Public Repositories</text></g></g><g transform="translate(263, 21)"><circle cx="102" cy="102" r="102" fill="#000000"/></g><g transform="translate(264, 22)"><path fill-rule="evenodd" fill="#3178c6" d="M 0.0,101.00000000000001 A 101 101 0 0 1 190.1306592052582 53.494994057087816 L 101,101 Z"/><path fill-rule="evenodd" fill="#f1e05a" d="M 190.1306592052582,53.494994057087816 A 101 101 0 0 1 169.8459905515187 174.90013250989608 L 101,101 Z"/><path fill-rule="evenodd" fill="#3572A5" d="M 169.8459905515187,174.90013250989608 A 101 101 0 0 1 108.10694997340559 201.7496464612929 L 101,101 Z"/><path fill-rule="evenodd" fill="#DA5B0B" d="M 108.10694997340559,201.7496464612929 A 101 101 0 0 1 63.276228417208216 194.6905387836432 L 101,101 Z"/><path fill-rule="evenodd" fill="#663399" d="M 63.276228417208216,194.6905387836432 A 101 101 0 0 1 30.573094181371616 173.39510298918046 L 101,101 Z"/><path fill-rule="evenodd" fill="#ec915c" d="M 30.573094181371616,173.39510298918046 A 101 101 0 0 1 8.983665510635447 142.64125583050276 L 101,101 Z"/><path fill-rule="evenodd" fill="#e34c26" d="M 8.983665510635447,142.64125583050276 A 101 101 0 0 1 0.9594094489081613 114.88813314267952 L 101,101 Z"/><path fill-rule="evenodd" fill="#844FBA" d="M 0.9594094489081613,114.88813314267952 A 101 101 0 0 1 0.009395307234086658 102.37759347758592 L 101,101 Z"/><path fill-rule="evenodd" fill="#959da5" d="M 0.009395307234086658,102.37759347758592 A 101 101 0 0 1 0.0 101.00000000000004 L 101,101 Z"/></g><g transform="translate(15, 21)"><rect x="0.5" y="0.5" rx="2" width="15" height="15" fill="#3178c6" stroke-width="1" stroke="#000000"/><text transform="scale(0.095)" x="263" y="132" textLength="1568" lengthAdjust="spacingAndGlyphs">TypeScript 42.21%</text></g><g transform="translate(15, 42)"><rect x="0.5" y="0.5" rx="2" width="15" height="15" fill="#f1e05a" stroke-width="1" stroke="#000000"/><text transform="scale(0.095)" x="263" y="132" textLength="1516" lengthAdjust="spacingAndGlyphs">JavaScript 20.86%</text></g><g transform="translate(15, 63)"><rect x="0.5" y="0.5" rx="2" width="15" height="15" fill="#3572A5" stroke-width="1" stroke="#000000"/><text transform="scale(0.095)" x="263" y="132" textLength="1254" lengthAdjust="spacingAndGlyphs">Python 10.82%</text></g><g transform="translate(15, 84)"><rect x="0.5" y="0.5" rx="2" width="15" height="15" fill="#DA5B0B" stroke-width="1" stroke="#000000"/><text transform="scale(0.095)" x="263" y="132" textLength="2020" lengthAdjust="spacingAndGlyphs">Jupyter Notebook 7.21%</text></g><g transform="translate(15, 105)"><rect x="0.5" y="0.5" rx="2" width="15" height="15" fill="#663399" stroke-width="1" stroke="#000000"/><text transform="scale(0.095)" x="263" y="132" textLength="903" lengthAdjust="spacingAndGlyphs">CSS 6.19%</text></g><g transform="translate(15, 126)"><rect x="0.5" y="0.5" rx="2" width="15" height="15" fill="#ec915c" stroke-width="1" stroke="#000000"/><text transform="scale(0.095)" x="263" y="132" textLength="842" lengthAdjust="spacingAndGlyphs">Zig 5.96%</text></g><g transform="translate(15, 147)"><rect x="0.5" y="0.5" rx="2" width="15" height="15" fill="#e34c26" stroke-width="1" stroke="#000000"/><text transform="scale(0.095)" x="263" y="132" textLength="1036" lengthAdjust="spacingAndGlyphs">HTML 4.57%</text></g><g transform="translate(15, 168)"><rect x="0.5" y="0.5" rx="2" width="15" height="15" fill="#844FBA" stroke-width="1" stroke="#000000"/><text transform="scale(0.095)" x="263" y="132" textLength="909" lengthAdjust="spacingAndGlyphs">HCL 1.98%</text></g><g transform="translate(15, 189)"><rect x="0.5" y="0.5" rx="2" width="15" height="15" fill="#959da5" stroke-width="1" stroke="#000000"/><text transform="scale(0.095)" x="263" y="132" textLength="1047" lengthAdjust="spacingAndGlyphs">Other 0.22%</text></g></g></g></svg>